<svg width="64" height="64" viewBox="0 0 64 64" fill="none" xmlns="http://www.w3.org/2000/svg">
<rect width="64" height="64" rx="13" fill="#D32F2F" fill-opacity="0.24"/>
<path d="M25.5002 37.084C26.0835 38.3618 26.7988 39.3687 27.646 40.1048C28.4932 40.8409 29.5418 41.3757 30.7918 41.709V42.834C30.7918 43.1395 30.9099 43.4034 31.146 43.6256C31.3821 43.8479 31.6529 43.959 31.9585 43.959C32.2641 43.959 32.5279 43.8409 32.7502 43.6048C32.9724 43.3687 33.0835 43.0979 33.0835 42.7923V41.7923C34.7779 41.5979 36.0974 41.077 37.0418 40.2298C37.9863 39.3826 38.4585 38.2507 38.4585 36.834C38.4585 35.4173 38.0557 34.2645 37.2502 33.3757C36.4446 32.4868 35.0835 31.6395 33.1668 30.834C31.5557 30.1673 30.3891 29.5701 29.6668 29.0423C28.9446 28.5145 28.5835 27.8062 28.5835 26.9173C28.5835 26.0562 28.896 25.3757 29.521 24.8757C30.146 24.3757 31.0002 24.1257 32.0835 24.1257C32.9168 24.1257 33.6391 24.3201 34.2502 24.709C34.8613 25.0979 35.3752 25.6812 35.7918 26.459L37.7918 25.5007C37.3196 24.5284 36.6946 23.7645 35.9168 23.209C35.1391 22.6534 34.2224 22.3201 33.1668 22.209V21.209C33.1668 20.9034 33.0557 20.6395 32.8335 20.4173C32.6113 20.1951 32.3474 20.084 32.0418 20.084C31.7363 20.084 31.4654 20.1951 31.2293 20.4173C30.9932 20.6395 30.8752 20.9034 30.8752 21.209V22.209C29.4585 22.4034 28.3404 22.9243 27.521 23.7715C26.7016 24.6187 26.2918 25.6673 26.2918 26.9173C26.2918 28.2784 26.7085 29.3618 27.5418 30.1673C28.3752 30.9729 29.6252 31.7229 31.2918 32.4173C33.1529 33.1951 34.4307 33.8965 35.1252 34.5215C35.8196 35.1465 36.1668 35.9173 36.1668 36.834C36.1668 37.7229 35.7988 38.4382 35.0627 38.9798C34.3266 39.5215 33.4029 39.7923 32.2918 39.7923C31.2085 39.7923 30.2432 39.4868 29.396 38.8757C28.5488 38.2645 27.9585 37.4312 27.6252 36.3757L25.5002 37.084ZM32.0002 48.6673C29.7224 48.6673 27.5696 48.2298 25.5418 47.3548C23.5141 46.4798 21.7432 45.2854 20.2293 43.7715C18.7154 42.2576 17.521 40.4868 16.646 38.459C15.771 36.4312 15.3335 34.2784 15.3335 32.0007C15.3335 29.6951 15.771 27.5284 16.646 25.5007C17.521 23.4729 18.7154 21.709 20.2293 20.209C21.7432 18.709 23.5141 17.5215 25.5418 16.6465C27.5696 15.7715 29.7224 15.334 32.0002 15.334C34.3057 15.334 36.4724 15.7715 38.5002 16.6465C40.5279 17.5215 42.2918 18.709 43.7918 20.209C45.2918 21.709 46.4793 23.4729 47.3543 25.5007C48.2293 27.5284 48.6668 29.6951 48.6668 32.0007C48.6668 34.2784 48.2293 36.4312 47.3543 38.459C46.4793 40.4868 45.2918 42.2576 43.7918 43.7715C42.2918 45.2854 40.5279 46.4798 38.5002 47.3548C36.4724 48.2298 34.3057 48.6673 32.0002 48.6673ZM32.0002 46.1673C35.9446 46.1673 39.2918 44.7854 42.0418 42.0215C44.7918 39.2576 46.1668 35.9173 46.1668 32.0007C46.1668 28.0562 44.7918 24.709 42.0418 21.959C39.2918 19.209 35.9446 17.834 32.0002 17.834C28.0835 17.834 24.7432 19.209 21.9793 21.959C19.2154 24.709 17.8335 28.0562 17.8335 32.0007C17.8335 35.9173 19.2154 39.2576 21.9793 42.0215C24.7432 44.7854 28.0835 46.1673 32.0002 46.1673Z" fill="#D32F2F"/>
</svg>
