<svg width="30" height="30" viewBox="0 0 30 30" fill="none" xmlns="http://www.w3.org/2000/svg">
<rect width="30" height="30" rx="8" fill="#009565" fill-opacity="0.24"/>
<path d="M12.4732 20.0582C12.3889 20.0582 12.3115 20.0441 12.2412 20.016C12.1709 19.9879 12.1006 19.9387 12.0303 19.8684L8.2123 16.0504C8.08574 15.9238 8.02246 15.7691 8.02246 15.5863C8.02246 15.4035 8.08574 15.2488 8.2123 15.1223C8.33887 14.9957 8.48652 14.9324 8.65527 14.9324C8.82402 14.9324 8.97168 14.9957 9.09824 15.1223L12.4732 18.4973L20.1303 10.8402C20.2568 10.7137 20.408 10.6504 20.5838 10.6504C20.7596 10.6504 20.9107 10.7137 21.0373 10.8402C21.1639 10.9668 21.2271 11.118 21.2271 11.2937C21.2271 11.4695 21.1639 11.6207 21.0373 11.7473L12.9162 19.8684C12.8459 19.9387 12.7756 19.9879 12.7053 20.016C12.635 20.0441 12.5576 20.0582 12.4732 20.0582Z" fill="#009565"/>
</svg>
