<svg width="14" height="14" viewBox="0 0 14 14" fill="none" xmlns="http://www.w3.org/2000/svg">
<path d="M9.27912 0.629414C9.24358 0.623946 9.20324 0.627364 9.15949 0.641947C8.57616 0.758614 7.93518 1.10861 7.52684 1.51695C7.17684 1.86695 6.88541 2.45028 6.88541 2.97528C6.88541 3.09195 7.00116 3.20884 7.11783 3.20884C7.75949 3.15051 8.40139 2.80028 8.80972 2.39195C9.15972 1.92528 9.45116 1.40051 9.45116 0.875508C9.45116 0.744258 9.38576 0.645821 9.27912 0.629414ZM9.45116 3.15074C8.40116 3.15074 7.93518 3.79218 7.23518 3.79218C6.47684 3.79218 5.77684 3.20884 4.90184 3.20884C3.67684 3.20884 1.80972 4.37528 1.80972 7.05861C1.75139 9.50861 3.96828 12.2505 5.25162 12.2505C6.00995 12.2505 6.18518 11.7834 7.23518 11.7834C8.28518 11.7834 8.51851 12.2505 9.27684 12.2505C10.1518 12.2505 10.7935 11.3169 11.3185 10.5586C11.5518 10.1503 11.7268 9.9174 11.9018 9.5674C12.0185 9.33407 11.9016 9.10074 11.6683 8.98407C10.1516 8.22574 9.8604 5.77574 11.5521 4.90074C11.8437 4.72574 11.9016 4.37505 11.6683 4.20005C11.0266 3.61672 10.0928 3.15074 9.45116 3.15074Z" fill="#1976D2"/>
</svg>
