<svg width="64" height="64" viewBox="0 0 64 64" fill="none" xmlns="http://www.w3.org/2000/svg">
<rect width="64" height="64" rx="13" fill="#1976D2" fill-opacity="0.24"/>
<path d="M43.6593 35.334C43.3031 35.334 43.0069 35.2142 42.7708 34.9746C42.5347 34.735 42.4166 34.4382 42.4166 34.084V29.9173H38.25C37.8958 29.9173 37.5989 29.7968 37.3593 29.5559C37.1198 29.3149 37 29.0162 37 28.66C37 28.3038 37.1198 28.0076 37.3593 27.7715C37.5989 27.5354 37.8958 27.4173 38.25 27.4173H42.4166V23.2507C42.4166 22.8965 42.5371 22.5996 42.7781 22.36C43.0191 22.1204 43.3177 22.0007 43.6739 22.0007C44.0302 22.0007 44.3263 22.1204 44.5625 22.36C44.7986 22.5996 44.9166 22.8965 44.9166 23.2507V27.4173H49.0833C49.4375 27.4173 49.7343 27.5378 49.9739 27.7788C50.2135 28.0198 50.3333 28.3184 50.3333 28.6746C50.3333 29.0309 50.2135 29.327 49.9739 29.5632C49.7343 29.7993 49.4375 29.9173 49.0833 29.9173H44.9166V34.084C44.9166 34.4382 44.7961 34.735 44.5552 34.9746C44.3142 35.2142 44.0156 35.334 43.6593 35.334ZM27 31.959C25.1666 31.959 23.6666 31.3757 22.5 30.209C21.3333 29.0423 20.75 27.5423 20.75 25.709C20.75 23.8757 21.3333 22.3757 22.5 21.209C23.6666 20.0423 25.1666 19.459 27 19.459C28.8333 19.459 30.3333 20.0423 31.5 21.209C32.6666 22.3757 33.25 23.8757 33.25 25.709C33.25 27.5423 32.6666 29.0423 31.5 30.209C30.3333 31.3757 28.8333 31.959 27 31.959ZM14.9166 45.334C14.5625 45.334 14.2656 45.2142 14.026 44.9746C13.7864 44.735 13.6666 44.4382 13.6666 44.084V41.4173C13.6666 40.4451 13.9166 39.5632 14.4166 38.7715C14.9166 37.9798 15.6111 37.3895 16.5 37.0007C18.5833 36.084 20.4352 35.4382 22.0557 35.0632C23.6762 34.6882 25.3221 34.5007 26.9932 34.5007C28.6644 34.5007 30.3125 34.6882 31.9375 35.0632C33.5625 35.4382 35.4027 36.084 37.4583 37.0007C38.3472 37.4173 39.0486 38.0145 39.5625 38.7923C40.0763 39.5701 40.3333 40.4451 40.3333 41.4173V44.084C40.3333 44.4382 40.2135 44.735 39.9739 44.9746C39.7343 45.2142 39.4375 45.334 39.0833 45.334H14.9166ZM16.1666 42.834H37.8333V41.4173C37.8333 40.9729 37.7222 40.5493 37.5 40.1465C37.2777 39.7437 36.9305 39.4451 36.4583 39.2507C34.5138 38.3062 32.8541 37.6951 31.4791 37.4173C30.1041 37.1395 28.6111 37.0007 27 37.0007C25.3888 37.0007 23.8958 37.1465 22.5208 37.4382C21.1458 37.7298 19.4722 38.334 17.5 39.2507C17.0833 39.4451 16.7569 39.7437 16.5208 40.1465C16.2847 40.5493 16.1666 40.9729 16.1666 41.4173V42.834ZM27 29.459C28.0833 29.459 28.9791 29.1048 29.6875 28.3965C30.3958 27.6882 30.75 26.7923 30.75 25.709C30.75 24.6257 30.3958 23.7298 29.6875 23.0215C28.9791 22.3132 28.0833 21.959 27 21.959C25.9166 21.959 25.0208 22.3132 24.3125 23.0215C23.6041 23.7298 23.25 24.6257 23.25 25.709C23.25 26.7923 23.6041 27.6882 24.3125 28.3965C25.0208 29.1048 25.9166 29.459 27 29.459Z" fill="#1976D2"/>
</svg>
