<svg width="64" height="64" viewBox="0 0 64 64" fill="none" xmlns="http://www.w3.org/2000/svg">
<rect width="64" height="64" rx="13" fill="#EF5DA8" fill-opacity="0.24"/>
<path d="M25.3334 45.3333C22.0834 45.3333 19.3264 44.2014 17.0625 41.9375C14.7986 39.6736 13.6667 36.9167 13.6667 33.6667C13.6667 30.25 14.882 27.4653 17.3125 25.3125C19.7431 23.1597 22.4584 22.1806 25.4584 22.375L22.75 19.6667C22.5 19.4167 22.375 19.1181 22.375 18.7708C22.375 18.4236 22.5 18.125 22.75 17.875C23 17.625 23.2986 17.5 23.6459 17.5C23.9931 17.5 24.2917 17.625 24.5417 17.875L29.4584 22.7917C29.5972 22.9306 29.6945 23.0694 29.75 23.2083C29.8056 23.3472 29.8334 23.5 29.8334 23.6667C29.8334 23.8333 29.8056 23.9861 29.75 24.125C29.6945 24.2639 29.5972 24.4028 29.4584 24.5417L24.5417 29.4583C24.2917 29.7083 24 29.8264 23.6667 29.8125C23.3334 29.7986 23.0417 29.6667 22.7917 29.4167C22.5417 29.1667 22.4167 28.8681 22.4167 28.5208C22.4167 28.1736 22.5417 27.875 22.7917 27.625L25.5834 24.8333C22.9445 24.7778 20.7153 25.5833 18.8959 27.25C17.0764 28.9167 16.1667 31.0556 16.1667 33.6667C16.1667 36.1944 17.0625 38.3542 18.8542 40.1458C20.6459 41.9375 22.8056 42.8333 25.3334 42.8333H29.0834C29.4445 42.8333 29.7431 42.9514 29.9792 43.1875C30.2153 43.4236 30.3334 43.7222 30.3334 44.0833C30.3334 44.4444 30.2153 44.7431 29.9792 44.9792C29.7431 45.2153 29.4445 45.3333 29.0834 45.3333H25.3334ZM36.1667 45.3333C35.4722 45.3333 34.882 45.0903 34.3959 44.6042C33.9097 44.1181 33.6667 43.5278 33.6667 42.8333V36.1667C33.6667 35.4722 33.9097 34.8819 34.3959 34.3958C34.882 33.9097 35.4722 33.6667 36.1667 33.6667H46.1667C46.8611 33.6667 47.4514 33.9097 47.9375 34.3958C48.4236 34.8819 48.6667 35.4722 48.6667 36.1667V42.8333C48.6667 43.5278 48.4236 44.1181 47.9375 44.6042C47.4514 45.0903 46.8611 45.3333 46.1667 45.3333H36.1667ZM36.1667 42.8333H46.1667V36.1667H36.1667V42.8333ZM36.1667 30.3333C35.4722 30.3333 34.882 30.0903 34.3959 29.6042C33.9097 29.1181 33.6667 28.5278 33.6667 27.8333V21.1667C33.6667 20.4722 33.9097 19.8819 34.3959 19.3958C34.882 18.9097 35.4722 18.6667 36.1667 18.6667H46.1667C46.8611 18.6667 47.4514 18.9097 47.9375 19.3958C48.4236 19.8819 48.6667 20.4722 48.6667 21.1667V27.8333C48.6667 28.5278 48.4236 29.1181 47.9375 29.6042C47.4514 30.0903 46.8611 30.3333 46.1667 30.3333H36.1667Z" fill="#EF5DA8"/>
</svg>
