<svg width="64" height="64" viewBox="0 0 64 64" fill="none" xmlns="http://www.w3.org/2000/svg">
<rect width="64" height="64" rx="13" fill="#5D5FEF" fill-opacity="0.24"/>
<path d="M19.5 42.9583C21.1667 41.4028 23.0541 40.1458 25.1623 39.1875C27.2706 38.2292 29.5484 37.75 31.9957 37.75C34.443 37.75 36.7222 38.2292 38.8333 39.1875C40.9444 40.1458 42.8333 41.4028 44.5 42.9583V19.5H19.5V42.9583ZM32.0833 34.4583C33.6944 34.4583 35.0556 33.9028 36.1667 32.7917C37.2778 31.6806 37.8333 30.3194 37.8333 28.7083C37.8333 27.0972 37.2778 25.7361 36.1667 24.625C35.0556 23.5139 33.6944 22.9583 32.0833 22.9583C30.4722 22.9583 29.1111 23.5139 28 24.625C26.8889 25.7361 26.3333 27.0972 26.3333 28.7083C26.3333 30.3194 26.8889 31.6806 28 32.7917C29.1111 33.9028 30.4722 34.4583 32.0833 34.4583ZM19.5 47C18.8333 47 18.25 46.75 17.75 46.25C17.25 45.75 17 45.1667 17 44.5V19.5C17 18.8333 17.25 18.25 17.75 17.75C18.25 17.25 18.8333 17 19.5 17H44.5C45.1667 17 45.75 17.25 46.25 17.75C46.75 18.25 47 18.8333 47 19.5V44.5C47 45.1667 46.75 45.75 46.25 46.25C45.75 46.75 45.1667 47 44.5 47H19.5ZM21.7917 44.5H42.2083V44.125C40.7083 42.8472 39.0972 41.8819 37.375 41.2292C35.6528 40.5764 33.8611 40.25 32 40.25C30.1389 40.25 28.3472 40.5764 26.625 41.2292C24.9028 41.8819 23.2917 42.8472 21.7917 44.125V44.5ZM32.0833 31.9583C31.1806 31.9583 30.4132 31.6424 29.7812 31.0104C29.1493 30.3785 28.8333 29.6111 28.8333 28.7083C28.8333 27.8056 29.1493 27.0382 29.7812 26.4062C30.4132 25.7743 31.1806 25.4583 32.0833 25.4583C32.9861 25.4583 33.7535 25.7743 34.3854 26.4062C35.0174 27.0382 35.3333 27.8056 35.3333 28.7083C35.3333 29.6111 35.0174 30.3785 34.3854 31.0104C33.7535 31.6424 32.9861 31.9583 32.0833 31.9583Z" fill="#5D5FEF"/>
</svg>
