<svg width="64" height="64" viewBox="0 0 64 64" fill="none" xmlns="http://www.w3.org/2000/svg">
<rect width="64" height="64" rx="13" fill="#2E7D32" fill-opacity="0.24"/>
<path d="M32.0048 38.2493C33.9738 38.2493 35.6458 37.5602 37.0208 36.1819C38.3958 34.8037 39.0833 33.1301 39.0833 31.1611C39.0833 29.1922 38.3941 27.5202 37.0158 26.1452C35.6376 24.7702 33.964 24.0827 31.995 24.0827C30.0261 24.0827 28.3541 24.7718 26.9791 26.1501C25.6041 27.5283 24.9166 29.202 24.9166 31.1709C24.9166 33.1399 25.6057 34.8118 26.984 36.1868C28.3623 37.5618 30.0359 38.2493 32.0048 38.2493ZM31.9901 35.8327C30.6911 35.8327 29.5902 35.378 28.6874 34.4687C27.7846 33.5594 27.3333 32.4552 27.3333 31.1562C27.3333 29.8572 27.7879 28.7563 28.6972 27.8535C29.6065 26.9507 30.7107 26.4993 32.0097 26.4993C33.3087 26.4993 34.4096 26.954 35.3124 27.8633C36.2152 28.7726 36.6666 29.8768 36.6666 31.1758C36.6666 32.4748 36.2119 33.5757 35.3026 34.4785C34.3933 35.3813 33.2891 35.8327 31.9901 35.8327ZM31.9999 43.666C28.1666 43.666 24.6735 42.6243 21.5208 40.541C18.368 38.4577 15.9325 35.7066 14.2143 32.2878C14.1269 32.1511 14.0624 31.983 14.0208 31.7838C13.9791 31.5845 13.9583 31.3786 13.9583 31.166C13.9583 30.9535 13.9791 30.7475 14.0208 30.5483C14.0624 30.349 14.1269 30.181 14.2143 30.0442C15.9325 26.6254 18.368 23.8743 21.5208 21.791C24.6735 19.7077 28.1666 18.666 31.9999 18.666C35.8333 18.666 39.3263 19.7077 42.4791 21.791C45.6319 23.8743 48.0673 26.6254 49.7855 30.0442C49.8729 30.181 49.9374 30.349 49.9791 30.5483C50.0207 30.7475 50.0416 30.9535 50.0416 31.166C50.0416 31.3786 50.0207 31.5845 49.9791 31.7838C49.9374 31.983 49.8729 32.1511 49.7855 32.2878C48.0673 35.7066 45.6319 38.4577 42.4791 40.541C39.3263 42.6243 35.8333 43.666 31.9999 43.666ZM31.9929 41.166C35.3587 41.166 38.4513 40.2563 41.2708 38.4368C44.0902 36.6174 46.236 34.1938 47.7082 31.166C46.236 28.1382 44.0925 25.7146 41.2778 23.8952C38.463 22.0757 35.3727 21.166 32.007 21.166C28.6412 21.166 25.5485 22.0757 22.7291 23.8952C19.9096 25.7146 17.7499 28.1382 16.2499 31.166C17.7499 34.1938 19.9073 36.6174 22.722 38.4368C25.5368 40.2563 28.6271 41.166 31.9929 41.166Z" fill="#2E7D32"/>
</svg>
