<svg width="170" height="40" viewBox="0 0 170 40" fill="none" xmlns="http://www.w3.org/2000/svg">
<path fill-rule="evenodd" clip-rule="evenodd" d="M156.902 16.7285C156.902 15.8087 157.356 15.3489 158.264 15.3489C158.582 15.3489 158.871 15.4579 159.131 15.6761C159.667 15.399 160.254 15.2604 160.891 15.2604C161.834 15.2604 162.683 15.567 163.438 16.1802C164.192 15.567 165.044 15.2604 165.994 15.2604C167.09 15.2604 168.031 15.6496 168.815 16.4278C169.605 17.212 170 18.1495 170 19.2402V22.9547C170 23.3497 169.856 23.6917 169.567 23.9806C169.278 24.2636 168.939 24.4051 168.55 24.4051C168.155 24.4051 167.816 24.2636 167.533 23.9806C167.244 23.6917 167.099 23.3497 167.099 22.9547V19.2402C167.099 18.5032 166.731 18.1347 165.994 18.1347C165.257 18.1347 164.888 18.5032 164.888 19.2402V22.9547C164.888 23.9216 164.405 24.4051 163.438 24.4051C163.049 24.4051 162.71 24.2636 162.421 23.9806C162.132 23.6917 161.987 23.3497 161.987 22.9547V19.2402C161.987 18.5032 161.622 18.1347 160.891 18.1347C160.154 18.1347 159.785 18.5032 159.785 19.2402V22.9547C159.785 23.9216 159.302 24.4051 158.335 24.4051C157.946 24.4051 157.61 24.2636 157.327 23.9806C157.044 23.6976 156.902 23.3556 156.902 22.9547V16.7285ZM149.076 19.9115C149.076 20.4009 149.244 20.8166 149.58 21.1585C149.922 21.5005 150.337 21.6715 150.827 21.6715C151.316 21.6715 151.732 21.5005 152.074 21.1585C152.416 20.8166 152.587 20.4009 152.587 19.9115C152.587 19.4222 152.416 19.0065 152.074 18.6645C151.732 18.3225 151.316 18.1516 150.827 18.1516C150.337 18.1516 149.922 18.3225 149.58 18.6645C149.244 19.0065 149.076 19.4222 149.076 19.9115ZM147.555 16.6418C148.463 15.7338 149.554 15.2798 150.828 15.2798C151.582 15.2798 152.325 15.4714 153.056 15.8547C153.322 15.5186 153.672 15.3506 154.109 15.3506C155.017 15.3506 155.471 15.8046 155.471 16.7125V23.0448C155.471 23.9528 155.017 24.4068 154.109 24.4068C153.72 24.4068 153.381 24.2624 153.092 23.9735C152.361 24.3567 151.606 24.5483 150.828 24.5483C149.554 24.5483 148.463 24.0973 147.555 23.1952C146.647 22.2872 146.193 21.1935 146.193 19.9141C146.193 18.6405 146.647 17.5498 147.555 16.6418L147.555 16.6418ZM139.836 22.9758V16.7143C139.836 15.8063 140.29 15.3523 141.198 15.3523C141.534 15.3523 141.835 15.4673 142.1 15.6972C142.424 15.5321 142.793 15.4171 143.206 15.3523C143.353 15.3287 143.509 15.314 143.674 15.3081L144.019 15.2992C144.414 15.3051 144.744 15.4584 145.01 15.7591C145.257 16.0362 145.381 16.3605 145.381 16.732V16.8027C145.34 17.6989 144.833 18.1558 143.86 18.1735C143.088 18.1971 142.701 18.5656 142.701 19.279V22.9758C142.701 23.931 142.224 24.4085 141.269 24.4085C140.314 24.4085 139.836 23.931 139.836 22.9758L139.836 22.9758ZM132.529 21.1357C132.871 21.4717 133.281 21.6398 133.759 21.6398C134.236 21.6398 134.643 21.4717 134.979 21.1357C135.315 20.7996 135.483 20.3928 135.483 19.9152C135.483 19.4376 135.315 19.0278 134.979 18.6859C134.637 18.3439 134.23 18.1729 133.759 18.1729C133.281 18.1729 132.871 18.3439 132.529 18.6859C132.193 19.0279 132.025 19.4376 132.025 19.9152C132.025 20.3928 132.193 20.7996 132.529 21.1357ZM129.121 19.9141C129.121 18.6346 129.572 17.5439 130.475 16.6418C131.383 15.7338 132.476 15.2798 133.756 15.2798C134.528 15.2798 135.247 15.4596 135.914 15.8193C136.185 15.4714 136.547 15.2975 137.001 15.2975C137.933 15.2975 138.399 15.7574 138.399 16.6772V23.5755C138.399 24.8431 137.945 25.925 137.037 26.8212C136.135 27.7233 135.047 28.1744 133.773 28.1744C133.089 28.1744 132.438 28.0299 131.819 27.741C131.253 27.4757 130.97 27.1042 130.97 26.6267C130.97 26.4085 131.029 26.1697 131.147 25.9103C131.418 25.3384 131.789 25.0524 132.261 25.0524C132.485 25.0524 132.73 25.1143 132.995 25.2382C133.249 25.3561 133.508 25.415 133.773 25.415C133.986 25.415 134.201 25.3767 134.419 25.3001C134.944 25.1114 135.309 24.7458 135.516 24.2034C134.944 24.4334 134.357 24.5483 133.756 24.5483C132.47 24.5424 131.377 24.0884 130.475 23.1864C129.572 22.2843 129.121 21.1935 129.121 19.9141H129.121ZM122.299 22.1676C122.552 21.6782 122.947 21.4335 123.484 21.4335H123.555C123.655 21.4394 123.77 21.4601 123.9 21.4954L124.572 21.7519C124.69 21.7873 124.79 21.8079 124.872 21.8138H124.961C125.232 21.8138 125.391 21.69 125.438 21.4424C125.444 21.4011 125.447 21.3628 125.447 21.3274C125.447 21.121 125.318 20.9825 125.058 20.9117C124.433 20.7231 123.938 20.502 123.572 20.2484C123.142 19.9536 122.803 19.5586 122.555 19.0633C122.378 18.6919 122.29 18.3293 122.29 17.9755C122.29 17.4803 122.464 17.0027 122.812 16.5428C123.242 15.965 123.826 15.5788 124.563 15.3842C124.87 15.3017 125.173 15.2604 125.474 15.2604C125.881 15.2604 126.285 15.3371 126.685 15.4904C127.086 15.6555 127.378 15.8972 127.561 16.2156C127.661 16.3983 127.711 16.5782 127.711 16.7551C127.711 16.9437 127.658 17.1324 127.552 17.3211C127.34 17.6807 127.03 17.8606 126.624 17.8606C126.429 17.8606 126.214 17.8193 125.978 17.7367C125.754 17.666 125.574 17.6306 125.438 17.6306H125.412C125.2 17.6365 125.076 17.7279 125.041 17.9048C125.035 17.9284 125.032 17.9519 125.032 17.9755C125.032 18.0993 125.126 18.2143 125.315 18.3205C125.397 18.3617 125.497 18.4 125.615 18.4354C125.698 18.459 125.783 18.4796 125.872 18.4973C126.432 18.6093 126.915 18.8894 127.322 19.3375C127.888 19.9271 128.171 20.5816 128.171 21.3009C128.171 21.7313 128.068 22.1853 127.862 22.6629C127.355 23.8244 126.42 24.4464 125.058 24.5289C124.987 24.5348 124.917 24.5378 124.846 24.5378C124.475 24.5378 124.094 24.4847 123.705 24.3786C123.104 24.2194 122.679 23.9747 122.432 23.6445C122.231 23.3733 122.131 23.0962 122.131 22.8132C122.131 22.601 122.187 22.3857 122.299 22.1676L122.299 22.1676ZM115.832 22.9758V16.7143C115.832 15.8063 116.286 15.3523 117.194 15.3523C117.53 15.3523 117.831 15.4673 118.096 15.6972C118.42 15.5321 118.789 15.4171 119.201 15.3523C119.349 15.3287 119.505 15.314 119.67 15.3081L120.015 15.2992C120.41 15.3051 120.74 15.4584 121.006 15.7591C121.253 16.0362 121.377 16.3605 121.377 16.732V16.8027C121.336 17.6989 120.829 18.1558 119.856 18.1735C119.084 18.1971 118.697 18.5656 118.697 19.279V22.9758C118.697 23.931 118.22 24.4085 117.265 24.4085C116.309 24.4085 115.832 23.931 115.832 22.9758L115.832 22.9758ZM108.651 18.8963H112.348C112.136 18.006 111.519 17.5609 110.499 17.5609C109.479 17.5609 108.863 18.006 108.651 18.8963H108.651ZM106.255 18.1011C106.591 17.2933 107.124 16.63 107.856 16.1112C108.646 15.5569 109.533 15.2798 110.518 15.2798C111.685 15.2798 112.705 15.666 113.578 16.4384C114.444 17.2108 114.951 18.1777 115.099 19.3392C115.105 19.4276 115.108 19.5131 115.108 19.5957C115.108 20.5096 114.553 20.9665 113.445 20.9665H108.634C109.017 21.5502 109.548 21.9069 110.226 22.0366C110.403 22.072 110.577 22.0897 110.748 22.0897C111.207 22.0897 111.656 21.9688 112.092 21.7271C112.351 21.562 112.593 21.4795 112.817 21.4795C113.189 21.4795 113.507 21.7065 113.772 22.1604C113.926 22.4258 114.002 22.6704 114.002 22.8945C114.002 23.2777 113.781 23.602 113.339 23.8673C112.549 24.3213 111.685 24.5483 110.748 24.5483C109.745 24.5483 108.837 24.2918 108.024 23.7789C107.263 23.2954 106.694 22.6587 106.317 21.8686C106.016 21.2495 105.866 20.6127 105.866 19.9583C105.866 19.351 105.995 18.7319 106.255 18.101L106.255 18.1011ZM98.2487 19.9115C98.2487 20.395 98.4197 20.8077 98.7616 21.1497C99.1095 21.4976 99.5222 21.6715 99.9998 21.6715C100.483 21.6715 100.896 21.4976 101.238 21.1497C101.586 20.8077 101.76 20.395 101.76 19.9115C101.76 19.4281 101.586 19.0124 101.238 18.6645C100.896 18.3225 100.483 18.1516 99.9998 18.1516C99.5222 18.1516 99.1095 18.3225 98.7616 18.6645C98.4197 19.0124 98.2487 19.4281 98.2487 19.9115ZM95.3683 23.0266V13.8642C95.3683 12.9798 95.8164 12.5258 96.7126 12.5022H96.8541C97.7857 12.5022 98.2515 12.9798 98.2515 13.935V15.6242C98.8057 15.3942 99.3894 15.2792 100.003 15.2792C101.282 15.2792 102.376 15.7332 103.284 16.6412C104.192 17.5492 104.646 18.64 104.646 19.9135C104.646 21.1929 104.192 22.2866 103.284 23.1946C102.376 24.0967 101.282 24.5478 100.003 24.5478C99.2125 24.5478 98.4578 24.3561 97.7385 23.9729C97.4673 24.2618 97.1371 24.4063 96.748 24.4063C95.8282 24.4063 95.3683 23.9464 95.3683 23.0266V23.0266ZM81.0042 16.7285C81.0042 15.8087 81.4581 15.3489 82.3661 15.3489C82.6845 15.3489 82.9734 15.4579 83.2328 15.6761C83.7694 15.399 84.356 15.2604 84.9928 15.2604C85.9362 15.2604 86.7852 15.567 87.5399 16.1802C88.2945 15.567 89.1465 15.2604 90.0958 15.2604C91.1924 15.2604 92.1328 15.6496 92.917 16.4278C93.7071 17.212 94.1021 18.1495 94.1021 19.2402V22.9547C94.1021 23.3497 93.9577 23.6917 93.6687 23.9806C93.3798 24.2636 93.0408 24.4051 92.6517 24.4051C92.2567 24.4051 91.9176 24.2636 91.6346 23.9806C91.3457 23.6917 91.2013 23.3497 91.2013 22.9547V19.2402C91.2013 18.5032 90.8328 18.1347 90.0958 18.1347C89.3588 18.1347 88.9903 18.5032 88.9903 19.2402V22.9547C88.9903 23.9216 88.5068 24.4051 87.5399 24.4051C87.1507 24.4051 86.8117 24.2636 86.5228 23.9806C86.2339 23.6917 86.0894 23.3497 86.0894 22.9547V19.2402C86.0894 18.5032 85.7239 18.1347 84.9928 18.1347C84.2558 18.1347 83.8873 18.5032 83.8873 19.2402V22.9547C83.8873 23.9216 83.4038 24.4051 82.4369 24.4051C82.0477 24.4051 81.7117 24.2636 81.4287 23.9806C81.1456 23.6976 81.0041 23.3556 81.0041 22.9547L81.0042 16.7285ZM73.8235 18.8963H77.5203C77.308 18.006 76.6919 17.5609 75.6719 17.5609C74.6519 17.5609 74.0357 18.006 73.8235 18.8963ZM71.4253 18.1011C71.7614 17.2933 72.295 16.63 73.0261 16.1112C73.8161 15.5569 74.7035 15.2798 75.6881 15.2798C76.8555 15.2798 77.8755 15.666 78.7481 16.4384C79.6148 17.2108 80.1219 18.1777 80.2693 19.3392C80.2752 19.4276 80.2781 19.5131 80.2781 19.5957C80.2781 20.5096 79.7239 20.9665 78.6155 20.9665H73.8043C74.1876 21.5502 74.7182 21.9069 75.3963 22.0366C75.5731 22.072 75.7471 22.0897 75.9181 22.0897C76.378 22.0897 76.826 21.9688 77.2623 21.7271C77.5218 21.562 77.7635 21.4795 77.9876 21.4795C78.359 21.4795 78.6774 21.7065 78.9427 22.1604C79.096 22.4258 79.1727 22.6704 79.1727 22.8945C79.1727 23.2777 78.9516 23.602 78.5094 23.8673C77.7193 24.3213 76.8555 24.5483 75.9181 24.5483C74.9157 24.5483 74.0078 24.2918 73.1941 23.7789C72.4335 23.2954 71.8646 22.6587 71.4872 21.8686C71.1865 21.2495 71.0362 20.6127 71.0362 19.9583C71.0362 19.351 71.1659 18.7319 71.4253 18.101V18.1011ZM56 22.9571V12.4504C56 12.0554 56.1415 11.7164 56.4245 11.4334C56.7075 11.1444 57.0436 11 57.4327 11C57.7806 11 58.0872 11.115 58.3525 11.3449C58.5648 11.5218 58.7593 11.7812 58.9362 12.1232L62.6861 19.8086L66.4359 12.1232C66.601 11.7812 66.7897 11.5218 67.0019 11.3449C67.2614 11.115 67.568 11 67.9217 11C68.8828 11 69.3633 11.4835 69.3633 12.4504V22.9571C69.3633 23.924 68.8828 24.4075 67.9217 24.4075C66.943 24.4075 66.4536 23.924 66.4536 22.9571V17.8364L63.8269 23.2136C63.5852 23.697 63.2049 23.9388 62.6861 23.9388C62.1554 23.9388 61.7751 23.697 61.5452 23.2136L58.9008 17.8364V22.9571C58.9008 23.924 58.4115 24.4075 57.4327 24.4075C57.0436 24.4075 56.7075 24.266 56.4245 23.983C56.1415 23.7 56 23.358 56 22.9571H56Z" fill="#404040"/>
<rect width="40" height="40" rx="6" fill="#1976D2"/>
<path d="M15.5024 18.2949H9.62947" stroke="#1565C0" stroke-width="2" stroke-linecap="round"/>
<path d="M12.5645 21.2445V15.334" stroke="#1565C0" stroke-width="2" stroke-linecap="round"/>
<path d="M15.5025 17.3145H9.62961" stroke="white" stroke-width="2" stroke-linecap="round"/>
<path d="M12.5645 20.2642V14.3537" stroke="white" stroke-width="2" stroke-linecap="round"/>
<path fill-rule="evenodd" clip-rule="evenodd" d="M26.5957 16.4027C26.5957 18.5768 24.8417 20.3392 22.6782 20.3392C20.5146 20.3392 18.7607 18.5767 18.7607 16.4027C18.7607 14.2286 20.5147 12.4662 22.6782 12.4662C23.7174 12.4656 24.7142 12.8802 25.449 13.6185C26.1838 14.3569 26.5963 15.3585 26.5957 16.4027H26.5957Z" fill="#1565C0"/>
<path fill-rule="evenodd" clip-rule="evenodd" d="M22.6837 21.8208C19.969 21.8208 16.4859 23.3728 15.4837 24.7502C14.8648 25.6019 14.4477 28.2226 15.4635 28.2226H29.905C30.9208 28.2226 30.5042 25.6022 29.8848 24.7506C28.8829 23.3735 25.3984 21.8208 22.6837 21.8208L22.6837 21.8208Z" fill="#1565C0"/>
<path fill-rule="evenodd" clip-rule="evenodd" d="M26.5956 15.4204C26.5956 17.5978 24.8416 19.3629 22.678 19.3629C20.5145 19.3629 18.7605 17.5977 18.7605 15.4203C18.7605 13.243 20.5145 11.4778 22.6781 11.4779C23.7172 11.4773 24.7141 11.8924 25.4488 12.6319C26.1836 13.3714 26.5962 14.3746 26.5955 15.4204H26.5956Z" fill="white"/>
<path fill-rule="evenodd" clip-rule="evenodd" d="M22.6835 20.8445C19.9688 20.8445 16.4858 22.3965 15.4836 23.7739C14.8646 24.6256 14.4475 27.2463 15.4634 27.2463H29.9049C30.9207 27.2463 30.504 24.6259 29.8847 23.7743C28.8827 22.3972 25.3983 20.8445 22.6836 20.8445L22.6835 20.8445Z" fill="white"/>
</svg>
